<svg width="1024" height="412" viewBox="0 0 1024 412" fill="none" xmlns="http://www.w3.org/2000/svg">
<g opacity="0.3">
<path d="M1091.8 446.114C1055.65 457.955 1015.81 449.954 984.925 428.1C950.207 403.531 929.725 365.898 920.851 324.625C915.093 297.844 910.953 270.711 905.447 243.869" stroke="#525252" stroke-width="7.93906" stroke-miterlimit="10" stroke-linecap="round"/>
<path d="M952.855 134.465C964.995 88.8596 1010.39 47.8116 1061.59 60.1515" stroke="#525252" stroke-width="7.93906" stroke-miterlimit="10" stroke-linecap="round"/>
<path d="M1125.25 178.167C1133.12 200.032 1136.48 223.976 1139.84 247.921C1144.88 273.576 1144.88 297.521 1141.52 323.176C1138.16 343.7 1131.43 360.803 1117.98 376.196C1096.13 398.43 1064.18 412.113 1033.92 401.851C1007.02 393.299 986.845 371.065 976.757 345.41C975.076 341.989 973.395 336.858 971.714 333.438C964.988 311.203 961.626 288.969 959.945 266.735C949.857 246.211 951.538 222.266 949.857 200.032C949.857 196.611 948.176 191.48 946.494 188.059C944.813 176.087 946.494 164.115 948.248 152.982" stroke="#525252" stroke-width="7.93906" stroke-miterlimit="10" stroke-linecap="round"/>
<path d="M1022.01 270.182C1019.69 248.061 1010.83 227.664 1002.99 207.14C996.252 189.514 988.792 171.01 992.449 151.791C995.724 134.572 1006.92 118.906 1022.83 111.705C1040 103.937 1058.25 105.113 1075 113.81C1093.02 123.161 1107.04 139.525 1116.55 157.435" stroke="#525252" stroke-width="7.93906" stroke-miterlimit="10" stroke-linecap="round"/>
<path d="M1050.23 171.427C1064.21 196.848 1075.37 224.161 1081.2 252.792C1085.97 276.211 1087.04 306.807 1074.56 328.206C1068.32 338.886 1053.89 340.28 1043.53 335.583C1026.34 327.786 1026.15 306.467 1024.39 290.158" stroke="#525252" stroke-width="7.93906" stroke-miterlimit="10" stroke-linecap="round"/>
<path d="M1020.49 133.237C1010.39 145.3 1003.67 160.693 1007.03 177.797C1010.39 193.19 1020.48 205.162 1025.52 218.845C1035.61 247.92 1037.29 278.706 1040.65 309.492C1042.33 319.754 1059.15 324.885 1064.19 314.623C1070.96 300.851 1070.04 281.959 1068.25 267.182C1064.75 238.185 1053.17 211.863 1042.63 184.981C1039.8 177.77 1034.48 170.019 1037.85 162.401C1040.91 155.453 1046.96 151.525 1054.1 155.562C1069.23 164.114 1074.28 182.928 1081 198.321C1096.14 232.527 1101.18 270.155 1097.82 307.782C1096.18 322.787 1091.34 339.416 1078.64 349.751C1077.99 350.286 1077.28 350.769 1076.54 351.189C1060.44 360.411 1042.95 357.256 1029.89 344.691C1029.21 344.043 1028.6 343.32 1028.05 342.564C1023.48 336.35 1018.98 330.058 1015.82 322.41C1015.56 321.785 1015.33 321.14 1015.14 320.49C1008.81 298.733 1010.26 275.393 1003.85 253.654C1003.73 253.252 1003.59 252.861 1003.45 252.468C998.478 238.932 993.506 223.781 988.534 210.293C986.853 205.162 983.49 200.031 981.809 194.9C971.721 164.114 975.084 129.907 1001.98 109.383C1017.12 97.4108 1033.93 88.8592 1052.42 90.5695C1091.09 95.7005 1117.99 124.776 1133.12 158.983C1149.94 201.741 1160.02 249.631 1155.94 296.312" stroke="#525252" stroke-width="7.93906" stroke-miterlimit="10" stroke-linecap="round"/>
<path d="M976.957 218.034C988.414 239.156 990.176 261.16 993.473 283.173C993.539 283.615 993.623 284.055 993.722 284.492C998.716 306.508 1003.74 328.507 1012.07 348.83C1013.75 353.961 1010.39 359.092 1012.07 364.223C1016.98 379.217 1033.06 386.097 1047.88 388.024C1048.66 388.126 1049.45 388.17 1050.25 388.159C1071.7 387.853 1093.04 379.274 1107.9 360.802C1119.67 345.409 1124.71 328.306 1126.39 311.202C1129.74 265.297 1123.11 219.391 1108.17 175.166C1107.99 174.64 1107.79 174.125 1107.57 173.616C1095.7 146.445 1072.28 116.282 1039.09 122.486" stroke="#525252" stroke-width="7.93906" stroke-miterlimit="10" stroke-linecap="round"/>
<path d="M1110.25 252.96C1117.49 291.457 1117.6 361.321 1067.89 369.794C1053.72 372.208 1038.62 369.145 1026.66 360.987" stroke="#525252" stroke-width="7.93906" stroke-miterlimit="10" stroke-linecap="round"/>
<path d="M1052.39 303.069C1054.1 266.734 1047.37 230.817 1032.24 198.321C1023.84 184.638 1018.79 169.245 1023.84 153.852C1027.2 143.59 1037.29 138.459 1047.37 138.459C1060.82 138.459 1070.91 145.3 1079.32 157.273C1094.45 181.217 1101.17 206.872 1105.66 232.092" stroke="#525252" stroke-width="7.93906" stroke-miterlimit="10" stroke-linecap="round"/>
<path d="M924.825 380.189C919.595 371.065 916.232 362.513 912.87 352.251C904.463 316.334 897.738 280.417 892.694 244.5C899.419 222.266 891.013 198.321 891.013 176.087C891.013 170.956 889.332 162.404 892.694 157.273C899.419 147.011 907.826 136.749 912.87 126.487C921.276 105.963 929.682 83.7285 944.898 66.7914" stroke="#525252" stroke-width="7.93906" stroke-miterlimit="10" stroke-linecap="round"/>
<path d="M1195.68 218.282C1203.73 270.155 1198.69 323.176 1183.56 374.486C1178.51 398.43 1161.7 415.534 1143.21 430.927C1134.8 437.768 1124.71 442.899 1116.31 448.03C1091.09 465.133 1064.19 470.264 1035.61 465.133C1015.43 463.423 996.937 454.871 980.124 441.189C963.312 429.216 946.499 415.534 936.475 399.152" stroke="#525252" stroke-width="7.93906" stroke-miterlimit="10" stroke-linecap="round"/>
<path d="M998.594 349.332C995.256 343.699 990.212 338.568 988.531 333.437C978.443 290.679 970.037 249.631 963.312 206.873C963.312 203.452 966.674 200.031 966.674 196.611C953.224 152.142 970.037 104.253 1010.39 83.7285C1013.75 82.0182 1018.79 80.3079 1022.16 78.5975C1059.14 64.9148 1096.13 85.4389 1123.03 112.804C1136.48 128.197 1146.57 145.301 1153.3 164.114C1166.75 210.293 1180.2 259.893 1165.06 306.072C1161.7 312.913 1154.98 316.334 1154.98 323.175C1151.61 379.616 1097.81 424.085 1044.01 417.244C986.85 410.403 953.224 352.251 948.18 297.52C946.499 275.286 936.411 256.472 936.411 234.238C934.73 212.004 933.049 191.48 933.049 169.245C933.049 148.721 939.774 128.197 948.18 107.673C959.949 82.0182 980.125 63.2045 1005.34 51.2322C1008.71 49.5218 1013.75 47.8115 1017.11 46.1012C1055.78 34.1288 1096.13 51.2322 1128.08 76.8872C1134.8 82.0182 1139.85 90.5699 1144.89 95.7009C1171.79 124.777 1185.24 160.694 1192.25 197.772" stroke="#525252" stroke-width="7.93906" stroke-miterlimit="10" stroke-linecap="round"/>
<path d="M923.529 204.598C920.964 188.362 918.973 173.369 921.204 156.921C923.288 141.549 928.008 126.626 934.14 112.453C937.056 105.712 940.034 98.5473 943.104 92.0229C947.58 82.5095 955.26 74.7663 961.964 66.8517C967.478 60.3417 973.91 54.6087 980.756 49.5645C1001.37 34.3766 1025.9 27.9505 1051.16 28.519C1079.02 29.146 1098.57 36.4259 1121.55 52.5648C1128.14 57.1899 1134 62.7905 1139.66 68.5486C1152.04 81.1484 1163.61 94.7032 1173.2 109.645C1189.71 135.341 1201.67 166.777 1206.79 196.907C1208.07 204.451 1209.35 211.995 1210.64 219.539C1214.4 241.704 1215.64 265.768 1214.26 288.236C1213.29 304.006 1205.82 318.2 1204.22 333.821C1203.33 342.576 1204.48 351.737 1201.36 359.947" stroke="#525252" stroke-width="7.93906" stroke-miterlimit="10" stroke-linecap="round"/>
<path d="M1165.06 331.049C1165.48 387.628 1107.46 432.807 1055.17 434.245C987.63 436.103 935.198 359.821 934.799 297.336C934.778 294.16 934.001 291.046 933.228 287.969C929.429 272.835 921.874 257.565 920.46 242.152C918.865 224.755 908.029 209.513 905.668 192.188C904.037 180.21 903.301 170.69 904.541 158.181" stroke="#525252" stroke-width="7.93906" stroke-miterlimit="10" stroke-linecap="round"/>
<path d="M991.045 28.851C976.756 37.5487 963.306 46.1004 948.175 51.2314C939.769 56.3624 929.681 59.783 922.956 68.3347C916.231 80.3071 911.187 90.5691 906.143 102.541C902.78 116.224 896.055 126.486 889.33 136.748C870.836 165.824 877.561 198.32 884.4 228.094" stroke="#525252" stroke-width="7.93906" stroke-miterlimit="10" stroke-linecap="round"/>
<path d="M1111.01 468.228C1138.16 456.582 1160.02 436.058 1180.19 413.824C1191.96 396.721 1202.05 379.617 1213.82 364.224C1237.36 287.259 1233.99 201.743 1200.37 128.198C1188.86 103.02 1173.31 78.7733 1153.6 59.4526C1118.58 25.1298 1057.82 3.39889 1010.67 21.4328" stroke="#525252" stroke-width="7.93906" stroke-miterlimit="10" stroke-linecap="round"/>
<path d="M1226.54 157.138C1220.03 138.78 1212.64 120.869 1203.57 103.617C1197.1 91.2958 1190.34 79.3036 1181.41 68.6127C1167.71 52.2335 1152.06 37.0066 1133.83 25.9426C1111.8 12.5678 1085.8 3.5068 1060.03 2.61141C1047.15 2.16405 1034.08 2.84586 1021.41 5.34324C996.628 10.2311 975.29 22.1098 953.691 34.5622C948.425 37.5985 942.507 39.2132 936.812 41.2998C917.561 48.3526 910.708 65.9252 902.138 83.2742C899.143 89.3363 897.588 95.8794 894.077 101.89C890.55 107.926 886.478 113.61 882.796 119.544C878.716 126.118 875.104 132.992 871.996 140.095C869.422 145.976 865.617 151.69 863.916 157.825C859.819 172.604 862.172 188.383 864.491 203.247C867.971 225.559 875.824 246.811 881.976 268.43C888.545 291.516 889.719 315.641 894.05 339.17C904.645 396.72 947.849 444.757 998.968 469.582C1024.45 481.957 1045.45 484.905 1073.17 479.462C1079.71 478.178 1086.35 476.382 1092.94 477.383C1097.15 478.023 1101.13 479.787 1105.33 480.51C1117.25 482.561 1128.82 476.114 1139.25 469.897C1156.8 459.434 1172.72 446.149 1186.67 431.107C1200.74 415.928 1208.67 396.01 1220.65 379.483C1230.74 365.579 1232.43 353.28 1235.22 337.223C1238.34 319.292 1243.86 302.31 1243.77 283.851C1243.7 267.281 1244.6 248.965 1242.72 231.829C1240.78 214.079 1236.44 197.051 1236.72 178.99C1236.83 171.496 1239.23 164.092 1239.15 156.638C1239.07 148.994 1234.81 141.058 1231.99 133.89C1225.69 117.897 1218.66 102.146 1209.84 87.4081C1185.57 46.8389 1147.79 14.8902 1104.33 -2.45407" stroke="#525252" stroke-width="7.93906" stroke-miterlimit="10" stroke-linecap="round"/>
<path d="M1216.92 415.375C1225.08 400.238 1237.2 387.807 1243.14 371.164C1251.87 346.685 1255.92 320.814 1258.29 294.973C1261.04 264.864 1260.28 234.111 1253.35 204.604C1250.46 192.3 1252.44 179.662 1253.4 167.255C1254.51 152.952 1249.76 139.755 1244.78 126.648C1236.64 105.201 1227.05 85.6742 1214.19 66.6999C1206.44 55.2735 1197.2 44.7751 1186.57 36.0568C1181.12 31.5958 1176.41 25.8908 1171.06 21.1492C1160.4 11.7082 1148.74 3.44932 1136.35 -3.46077C1124.45 -10.0971 1111.43 -18.1827 1097.65 -15.638C1093.17 -14.8104 1088.81 -13.3375 1084.29 -12.7536C1068.32 -10.6897 1051.74 -13.4038 1035.57 -11.6117C1020.46 -9.93731 1004.66 -6.34022 990.774 -1.86195C983.324 0.541447 975.096 4.25169 968.396 8.32812C961.602 12.4614 955.775 18.041 948.896 22.0459C944.608 24.5429 939.988 26.3854 935.387 28.2185C929.588 30.5292 923.789 32.8397 917.99 35.1502C916.015 35.9373 913.997 36.75 912.396 38.1653C907.489 42.5026 904.347 49.7074 900.828 55.1556C900.08 56.313 899.331 57.4731 898.703 58.7024C895.677 64.6331 892.255 70.0075 889.906 76.2044C887.224 83.2754 884.552 90.4386 880.742 96.9795C873.306 109.746 864.302 121.539 857.297 134.556C839.299 167.999 848.668 207.045 857.309 242.173C861.084 257.521 867.874 272.814 870.324 288.424C875.372 320.584 877.071 352.157 890.212 382.372C902.945 411.653 922.788 437.786 947.778 457.301C961.227 467.802 975.132 477.923 990.243 485.823C1003.47 492.737 1022.87 499.035 1037.67 499.347C1052.95 499.671 1068.02 496.667 1083.19 495.307C1097.38 494.035 1109.9 500.888 1123.6 496.61C1135.99 492.742 1150.4 487.037 1160.66 478.882C1180.66 462.996 1203.97 441.65 1215.4 418.336C1215.89 417.336 1216.4 416.35 1216.92 415.375Z" stroke="#525252" stroke-width="7.93906" stroke-miterlimit="10" stroke-linecap="round"/>
<path d="M855.632 284.1C859.074 319.755 865.799 355.672 877.568 389.878C891.018 424.085 914.556 453.161 943.555 476.997" stroke="#525252" stroke-width="7.93906" stroke-miterlimit="10" stroke-linecap="round"/>
<path d="M1072.92 -105.682C1076.65 -105.373 1080.13 -103.728 1083.43 -101.925C1096.15 -94.961 1101.11 -83.9459 1111.84 -74.9714C1116.33 -71.2207 1122 -69.3337 1127.53 -67.5255C1138.25 -64.0162 1148.75 -59.7 1158.93 -54.8396C1163.95 -52.4427 1181.12 -31.4956 1167.07 -33.2032C1163.19 -33.6759 1158.58 -39.4471 1155.02 -41.2885C1142.92 -47.5411 1130.81 -53.7647 1117.4 -56.5402C1101.18 -59.8979 1098.13 -70.894 1086.83 -81.4683C1078.36 -89.3848 1067.57 -94.7807 1056.08 -95.9764C1039.04 -97.749 1019.85 -99.6495 1003.13 -94.9752C987.512 -90.6095 973.964 -81.194 960.481 -72.4201C939.492 -58.7619 916.862 -52.0317 897.716 -35.5759C891.991 -30.6556 887.638 -21.353 888.86 -13.5658C889.773 -7.75581 894.745 -2.46913 900.528 -2.56366C909.906 -2.71696 917.588 -15.9019 924.897 -20.8682C936.831 -28.9764 950.293 -34.4687 962.195 -42.7342C979.453 -54.7199 999.187 -68.0407 1020.69 -68.7766C1034.95 -69.2649 1051.15 -69.8507 1064.15 -62.8298C1069.2 -60.0996 1078.13 -53.7224 1078.95 -47.2857C1080.02 -38.8931 1071.2 -36.9466 1063.15 -36.9743C1047.05 -37.0295 1014.75 -53.251 1004.06 -31.5821C1000.4 -24.1547 994.933 -19.482 987.029 -17.0207C976.858 -13.8531 967.561 -8.60823 957.902 -4.13663C952.778 -1.76403 947.749 1.09843 943.451 4.82098C935.957 11.3124 926.034 14.9273 917.404 19.5904C912.605 22.1831 907.99 25.1919 902.772 26.8677C896.164 28.9901 892.181 29.6574 885.341 27.3832C879.837 25.5535 874.006 22.66 870.153 18.1333" stroke="#525252" stroke-width="7.93906" stroke-miterlimit="10" stroke-linecap="round"/>
<path d="M882.097 -150.78C884.898 -144.816 888.551 -139.25 890.752 -133.022C901.328 -103.09 875.278 -80.6927 876.926 -52.4655C877.165 -48.3677 878.4 -44.3669 878.477 -40.2618C878.669 -29.8532 871.123 -19.5115 871.962 -9.29584C872.754 0.354039 880.625 7.46842 888.532 11.6693C897.256 16.3043 907.07 10.0453 914.43 5.26972C918.391 2.69934 923.046 1.03479 926.838 -1.88552C930.139 -4.42732 932.973 -7.54897 936.26 -10.1094C941.548 -14.2291 948.11 -15.9377 954.076 -18.8038C960.457 -21.8685 966.838 -24.9334 973.218 -27.9983C978.303 -30.441 983.517 -32.9769 987.37 -37.1444C989.14 -39.0589 990.574 -41.2704 992.311 -43.216C1004.38 -56.7311 1034.21 -56.0027 1049.98 -52.0465C1056.83 -50.3283 1053.35 -52.7265 1060.1 -50.6172" stroke="#525252" stroke-width="7.93906" stroke-miterlimit="10" stroke-linecap="round"/>
<path d="M1003.19 524.325C958.27 516.443 922.963 483.947 896.063 446.32C892.7 441.189 885.975 437.768 882.613 432.637C848.987 377.906 838.899 316.334 842.262 254.762C837.218 232.528 835.537 212.004 832.174 189.769C830.493 165.825 835.537 143.59 848.987 123.066C865.8 99.1216 879.25 76.8872 885.975 49.5219C887.656 44.3909 879.25 40.9702 873.482 37.5699" stroke="#525252" stroke-width="7.93906" stroke-miterlimit="10" stroke-linecap="round"/>
<path d="M367.375 41.8257C398.37 47.7525 425.028 66.6744 444.645 91.3313C455.21 104.61 463.327 119.28 470.712 134.56C478.392 150.452 476.57 168.504 480.056 185.671C484.291 206.531 490.744 226.832 495.838 247.475" stroke="#525252" stroke-width="7.93906" stroke-miterlimit="10" stroke-linecap="round"/>
<path d="M438.813 213.748C442.324 227.839 448.678 240.766 449.748 255.444C450.827 270.245 450.941 285.052 452.225 299.866C454.681 328.181 452.46 355.836 438.388 381.019C414.038 424.596 360.798 445.621 315.097 424.696C268.826 403.509 244.362 352.758 231.132 305.633C223.579 278.73 218.349 250.485 218.029 222.453C217.858 207.452 219.179 192.49 222.387 177.841C223.851 171.156 225.451 164.443 225.496 157.554C225.542 150.431 224.711 143.598 225.821 136.482C233.181 89.3117 281.012 51.2772 324.856 42.1554C331.741 40.723 338.761 39.9559 345.788 39.8803" stroke="#525252" stroke-width="7.93906" stroke-miterlimit="10" stroke-linecap="round"/>
<path d="M266.124 275.618C257.174 227.396 247.086 176.086 272.306 131.617C282.393 116.224 294.162 104.252 309.294 95.7004C321.063 88.8591 332.832 85.4384 344.6 85.4384C400.083 87.1488 437.071 145.3 436.213 198.666" stroke="#525252" stroke-width="7.93906" stroke-miterlimit="10" stroke-linecap="round"/>
<path d="M388.384 258.233C396.526 279.305 408.732 298.611 410.905 321.68C412.892 342.78 404.267 364.491 386.756 376.688C353.961 399.531 312.566 376.264 291.894 347.812C280.107 331.59 272.738 312.356 268.941 292.643" stroke="#525252" stroke-width="7.93906" stroke-miterlimit="10" stroke-linecap="round"/>
<path d="M320.564 224.296C318.394 207.182 316.91 187.507 321.821 170.775C328.091 149.411 358.08 146.71 369.823 165.824C381.592 189.768 376.548 215.423 382.891 241.716" stroke="#525252" stroke-width="7.93906" stroke-miterlimit="10" stroke-linecap="round"/>
<path d="M351.053 319.916C337.549 295.346 323.804 267.811 321.297 239.43" stroke="#525252" stroke-width="7.93906" stroke-miterlimit="10" stroke-linecap="round"/>
<path d="M348.957 136.075C387.278 142.711 388.123 184.709 392.898 215.624C396.091 236.297 403.897 255.668 411.297 275.062C418.285 293.377 427.148 313.618 425.12 333.684C421.568 368.826 389.387 399.836 354.558 400.761C316.878 401.761 287.618 370.077 271.772 338.41C262.124 319.129 257.165 298.352 252.536 277.366C247.707 255.477 244.482 234.071 244.764 211.568C244.834 206.052 245.045 200.538 245.345 195.03" stroke="#525252" stroke-width="7.93906" stroke-miterlimit="10" stroke-linecap="round"/>
<path d="M377.222 361.903C389.993 352.251 398.399 333.437 395.037 316.334C389.993 294.099 376.543 276.996 369.818 256.472C363.092 232.527 363.092 208.583 361.411 182.928C359.73 174.376 351.324 169.245 342.917 172.666C332.83 176.086 331.148 188.059 332.83 198.321C332.83 218.845 332.83 241.079 339.555 261.603C346.28 276.996 354.686 290.679 361.411 306.072C364.774 314.623 368.136 328.306 359.73 335.147C354.686 338.568 349.642 338.568 344.598 335.147C305.929 292.389 297.523 232.527 304.248 176.086C305.929 158.983 316.017 141.88 332.809 136.812" stroke="#525252" stroke-width="7.93906" stroke-miterlimit="10" stroke-linecap="round"/>
<path d="M280.314 153.846C273.989 165.825 273.989 179.507 272.308 191.48C270.627 237.659 279.033 285.548 297.527 328.307C309.296 352.251 331.152 376.196 361.615 369.719" stroke="#525252" stroke-width="7.93906" stroke-miterlimit="10" stroke-linecap="round"/>
<path d="M424.328 273.308C416.071 253.502 412.588 232.172 408.843 211.13C405.419 191.887 399.565 173.515 395.483 154.499C392.574 140.948 390.928 125.593 381.647 114.69C370.555 101.659 350.579 100.878 335.09 104.156C315.111 108.385 297.861 120.75 287.438 138.573" stroke="#525252" stroke-width="7.93906" stroke-miterlimit="10" stroke-linecap="round"/>
<path d="M288.431 220.202C284.736 182.8 291.474 124.985 337.994 120.961C350.774 119.856 363.945 123.076 374.629 130.355" stroke="#525252" stroke-width="7.93906" stroke-miterlimit="10" stroke-linecap="round"/>
<path d="M348.901 188.274C346.285 225.686 356.373 263.314 373.186 297.52C374.867 304.362 378.23 309.493 379.911 316.334C381.592 328.306 378.23 338.568 369.823 347.12C359.736 355.672 344.604 353.961 334.516 347.12C302.572 319.755 300.891 275.286 290.761 236.863" stroke="#525252" stroke-width="7.93906" stroke-miterlimit="10" stroke-linecap="round"/>
<path d="M490.281 147.617C495.916 174.376 499.279 200.031 506.004 227.397C511.048 246.21 504.323 261.603 506.004 280.417C507.685 294.1 509.367 306.072 512.729 318.045C514.411 323.176 512.729 328.307 511.048 333.438C506.004 343.7 497.598 352.251 492.554 362.513C485.829 381.327 479.104 398.43 467.335 415.534C463.972 418.954 460.61 420.665 457.507 424.329" stroke="#525252" stroke-width="7.93906" stroke-miterlimit="10" stroke-linecap="round"/>
<path d="M275.71 47.2974C300.888 28.9971 332.832 20.4454 364.777 25.5765C420.259 34.1281 467.334 75.1762 484.91 129.749" stroke="#525252" stroke-width="7.93906" stroke-miterlimit="10" stroke-linecap="round"/>
<path d="M215.223 304.381C206.737 268.445 200.012 232.528 205.056 196.611C208.418 174.377 211.781 152.143 215.143 128.198C216.825 99.1222 237 75.1775 260.527 58.2104" stroke="#525252" stroke-width="7.93906" stroke-miterlimit="10" stroke-linecap="round"/>
<path d="M368.232 447.262C295.846 453.162 238.683 386.459 219.864 320.849" stroke="#525252" stroke-width="7.93906" stroke-miterlimit="10" stroke-linecap="round"/>
<path d="M462.435 362.74C453.924 392.354 433.1 418.23 406.939 433.624C399.442 438.036 391.455 441.589 383.141 444.07" stroke="#525252" stroke-width="7.93906" stroke-miterlimit="10" stroke-linecap="round"/>
<path d="M391.294 85.4722C411.854 99.1215 426.986 117.935 438.754 140.17C440.436 143.59 442.117 148.721 443.798 152.142C449.843 164.44 451.536 182.421 453.103 196.334C454.941 212.652 457.81 227.575 461.099 243.667C468.038 277.615 470.882 312.818 465.808 347.251" stroke="#525252" stroke-width="7.93906" stroke-miterlimit="10" stroke-linecap="round"/>
<path d="M285.665 382.143C257.175 350.54 243.725 309.492 235.319 266.734C230.275 244.5 230.275 223.976 231.956 201.741C233.171 193.094 236.254 185.15 240.307 177.502C245.217 168.237 246.741 162.754 248.961 152.683C253.171 133.582 264.596 116.815 277.351 102.542C302.57 76.8868 341.239 66.6248 375.296 77.4204" stroke="#525252" stroke-width="7.93906" stroke-miterlimit="10" stroke-linecap="round"/>
<path d="M428.096 370.99C409.307 404.785 370.247 425.075 332.781 413.542C320.765 409.843 309.515 403.687 299.515 396.005" stroke="#525252" stroke-width="7.93906" stroke-miterlimit="10" stroke-linecap="round"/>
<path d="M402.692 142.011C419.506 166.399 421.915 198.312 427.29 226.783C430.081 241.562 435.038 256.455 435.53 271.434C436.015 286.186 437.719 300.86 438.426 315.6C439.085 329.332 439.091 342.711 434.736 355.879" stroke="#525252" stroke-width="7.93906" stroke-miterlimit="10" stroke-linecap="round"/>
<path d="M477.756 286.744C479.247 296.18 480.737 305.615 482.228 315.051C484.557 329.793 483.141 347.71 476.811 361.165C471.651 372.134 467.808 386.766 461.062 396.987C449.974 413.788 436.725 429.845 420.529 441.777C399.914 456.965 375.384 463.391 350.126 462.823C322.263 462.196 302.717 454.916 279.736 438.777C273.15 434.152 267.285 428.552 261.628 422.794C250.616 411.586 242.907 399.921 233.84 387.053C228.314 379.211 224.9 368.43 221.24 359.569C211.092 335 203.291 309.429 197.961 283.337C193.553 261.759 190.834 239.823 189.876 217.805C189.489 208.907 188.178 198.978 189.082 190.234C190.227 179.163 195.913 168.767 197.061 157.521C197.955 148.766 196.801 139.605 199.92 131.395" stroke="#525252" stroke-width="7.93906" stroke-miterlimit="10" stroke-linecap="round"/>
<path d="M236.225 160.295C235.805 103.716 293.83 58.5369 346.116 57.0985C413.656 55.2406 466.087 131.523 466.487 194.007C466.507 197.183 467.285 200.298 468.057 203.375C471.856 218.508 479.412 233.779 480.825 249.192C482.421 266.589 493.257 281.83 495.617 299.155C497.249 311.134 497.984 320.654 496.744 333.163" stroke="#525252" stroke-width="7.93906" stroke-miterlimit="10" stroke-linecap="round"/>
<path d="M23.3813 414.478C38.6065 412.114 52.0566 410.403 67.1881 412.114C100.814 418.955 129.395 436.058 161.34 449.741C173.109 454.872 178.152 468.555 184.878 478.817C191.603 492.499 198.328 504.472 204.317 515.932" stroke="#525252" stroke-width="7.93906" stroke-miterlimit="10" stroke-linecap="round"/>
<path d="M99.5587 394.84C117.631 401.851 137.806 398.43 152.938 386.458C166.388 374.485 173.113 357.382 169.751 340.279C165.829 319.533 158.198 299.527 154.516 278.806C150.653 257.074 150.156 234.122 148.018 212.137C146.189 193.333 155.143 173.999 147.894 155.562C147.894 152.142 141.169 153.852 137.806 153.852C89.0494 165.824 40.2925 162.404 -5.10197 143.59C-18.5522 138.459 -30.3211 152.142 -30.3211 165.824C-30.3211 184.638 -21.9147 208.583 -40.4088 222.265C-47.1339 285.548 -37.0462 352.251 -70.6717 410.402C-72.353 412.113 -72.3529 415.533 -73.1216 416.539" stroke="#525252" stroke-width="7.93906" stroke-miterlimit="10" stroke-linecap="round"/>
<path d="M29.9067 333.72C41.9706 347.12 53.7394 360.802 60.4645 377.906C65.5083 386.457 77.2773 388.168 85.3431 389.605" stroke="#525252" stroke-width="7.93906" stroke-miterlimit="10" stroke-linecap="round"/>
<path d="M-7.24806 212.811C-23.3628 241.413 -17.0938 276.198 0.623271 302.407C5.72846 309.959 11.7532 316.87 18.5202 322.921" stroke="#525252" stroke-width="7.93906" stroke-miterlimit="10" stroke-linecap="round"/>
<path d="M91.4983 265.114C76.8068 254.386 74.7713 236.87 68.3838 221.069C62.2468 205.888 48.4029 193.161 31.9484 191.637C22.4961 190.762 11.945 195.415 4.34668 200.832" stroke="#525252" stroke-width="7.93906" stroke-miterlimit="10" stroke-linecap="round"/>
<path d="M737.752 124.766C764.919 112.804 788.457 93.9899 803.589 68.3348C822.083 34.1281 827.126 -5.20957 848.554 -38.3637" stroke="#525252" stroke-width="7.93906" stroke-miterlimit="10" stroke-linecap="round"/>
<path d="M568.817 -67.0192C565.092 -42.6197 566.397 -17.8831 565.056 6.68588C564.016 25.7467 564.38 43.0007 571.447 61.0509C584.562 94.5457 614.179 123.321 648.351 133.593C672.233 140.771 698.538 142.826 721.823 132.329" stroke="#525252" stroke-width="7.93906" stroke-miterlimit="10" stroke-linecap="round"/>
<path d="M683.896 93.2879C717.843 93.9898 746.425 73.4658 763.238 44.3901C773.326 25.5764 780.051 5.0524 786.776 -15.4716C790.138 -24.0233 795.182 -32.575 799.667 -41.912" stroke="#525252" stroke-width="7.93906" stroke-miterlimit="10" stroke-linecap="round"/>
<path d="M625.831 -103.34C605.631 -50.7989 586.652 16.7352 627.06 64.9147C637.38 77.2198 651.184 86.4467 666.574 90.6215" stroke="#525252" stroke-width="7.93906" stroke-miterlimit="10" stroke-linecap="round"/>
<path d="M712.685 15.0931C716.164 10.1839 719.527 3.34252 721.208 -3.49882C727.933 -32.5745 736.34 -58.2295 753.153 -83.8845C769.965 -106.119 785.097 -131.774 778.174 -158.665" stroke="#525252" stroke-width="7.93906" stroke-miterlimit="10" stroke-linecap="round"/>
<path d="M719.332 -136.653C687.577 -104.409 672.446 -61.6503 664.04 -15.4712C662.358 -1.78857 662.358 11.8941 672.446 22.1561C679.171 28.9975 690.94 28.9975 699.914 25.1627" stroke="#525252" stroke-width="7.93906" stroke-miterlimit="10" stroke-linecap="round"/>
<path d="M652.763 -38.3983C647.088 -13.1546 639.917 22.7828 666.599 38.7913C692.952 54.6023 720.882 32.2826 730.334 7.48393C736.483 -8.64803 741.51 -25.218 748.351 -41.0755C755.561 -57.7862 766.094 -71.6317 775.453 -87.0213C793.885 -117.33 801.856 -152.213 781.696 -183.862C766.883 -207.117 738.855 -222.202 711.467 -216.774C708.048 -216.096 704.689 -215.105 701.444 -213.816" stroke="#525252" stroke-width="7.93906" stroke-miterlimit="10" stroke-linecap="round"/>
<path d="M733.959 -82.1544C719.527 -59.9394 712.802 -34.2844 707.758 -8.62937C704.396 -0.0776991 695.989 11.8946 685.902 8.47398C679.177 5.05331 675.814 -1.78803 677.495 -10.3397C685.902 -51.3877 697.671 -89.0151 726.252 -119.801C731.296 -128.353 736.34 -138.615 731.296 -148.877C727.934 -154.008 721.209 -154.008 716.165 -150.587C682.539 -130.063 665.726 -92.4358 656.712 -54.5183" stroke="#525252" stroke-width="7.93906" stroke-miterlimit="10" stroke-linecap="round"/>
<path d="M782.936 -77.1343C767.365 -56.3826 759.136 -30.7931 750.443 -6.53875C746.328 4.9429 742.774 16.7105 736.991 27.4797C733.98 33.0853 730.064 37.8443 726.568 43.0971C722.872 48.6494 724.143 54.5006 721.575 60.3094C712.772 80.2256 683.338 78.1612 666.993 71.9402C647.114 64.3739 632.108 48.9179 624.787 28.653C610.068 -12.0879 626.641 -58.851 640.839 -97.3342C652.789 -129.723 670.377 -169.918 705.037 -182.386C723.058 -188.869 743.074 -186.058 754.817 -169.585C767.513 -151.775 766.194 -128.934 754.259 -111.301C751.239 -106.838 747.879 -102.623 744.641 -98.3234" stroke="#525252" stroke-width="7.93906" stroke-miterlimit="10" stroke-linecap="round"/>
<path d="M674.043 -129.581C664.533 -113.348 657.561 -95.8028 650.103 -78.5454C644.12 -64.7017 639.168 -50.5008 636.138 -35.6673C630.598 -8.54151 629.263 32.9213 655.732 49.863C671.199 59.7623 691.449 61.3985 708.248 54.0848" stroke="#525252" stroke-width="7.93906" stroke-miterlimit="10" stroke-linecap="round"/>
<path d="M802.305 87.6918C810.314 75.1765 822.083 63.2041 827.127 49.5214C835.533 32.4181 842.258 17.025 847.302 -1.78864C850.665 -10.3403 855.708 -18.892 859.071 -27.4436C864.115 -39.416 860.752 -53.0987 862.433 -66.7813C864.115 -73.6227 869.159 -80.464 870.84 -89.0157C872.521 -94.1467 875.884 -97.5674 877.565 -100.988C880.928 -111.25 880.928 -123.222 875.884 -133.484C872.521 -138.615 867.477 -143.746 865.796 -148.877C859.071 -172.822 860.752 -200.187 842.847 -219.372" stroke="#525252" stroke-width="7.93906" stroke-miterlimit="10" stroke-linecap="round"/>
<path d="M562.338 72.3402C580.783 105.248 608.642 134.053 643.859 147.636C676.074 160.06 713.241 156.139 743.847 141.003C761.668 132.19 777.605 119.591 790.578 104.369" stroke="#525252" stroke-width="7.93906" stroke-miterlimit="10" stroke-linecap="round"/>
<path d="M602.122 -187.232C581.664 -157.429 569.895 -126.643 559.807 -92.4364C549.72 -49.678 549.72 -5.20935 549.72 37.549C549.72 42.68 551.401 47.811 553.28 53.2278" stroke="#525252" stroke-width="7.93906" stroke-miterlimit="10" stroke-linecap="round"/>
<path d="M758.849 72.439C775.008 58.073 785.096 39.2593 793.502 18.7353C795.183 11.8939 798.546 3.34227 800.227 -3.49907C806.952 -17.1817 811.996 -29.1541 817.04 -42.8367C825.446 -70.2021 830.49 -95.8571 835.534 -124.933C838.897 -143.747 837.215 -160.85 831.643 -177.63" stroke="#525252" stroke-width="7.93906" stroke-miterlimit="10" stroke-linecap="round"/>
<path d="M737.937 47.8783C748.108 35.8391 758.195 23.8667 763.239 8.47369C769.964 -17.1813 780.052 -39.4157 791.821 -61.65C793.502 -66.781 795.184 -71.912 796.865 -77.043C796.865 -89.0154 798.546 -99.2774 803.59 -111.25C823.765 -162.56 788.458 -227.552 732.976 -232.683C712.801 -234.394 694.307 -227.552 675.813 -219.001C662.363 -212.159 648.913 -201.897 640.506 -189.925C603.518 -143.746 578.299 -89.0154 583.343 -30.864C585.024 -12.0503 590.068 6.76334 591.749 27.2874C596.793 56.3631 615.287 82.0181 640.506 95.7008C657.319 104.252 675.813 111.094 695.988 107.673C714.482 104.252 731.295 97.4111 744.129 85.8492" stroke="#525252" stroke-width="7.93906" stroke-miterlimit="10" stroke-linecap="round"/>
<path d="M837.883 -80.3454C841.054 -89.3414 844.224 -98.3374 847.395 -107.333C852.349 -121.389 854.196 -139.265 850.406 -153.674C847.316 -165.422 846.184 -180.523 841.401 -191.832C833.539 -210.42 823.418 -228.681 809.655 -243.44C792.137 -262.226 769.187 -273.131 744.257 -277.297C716.756 -281.892 696.227 -278.393 670.721 -266.828C663.411 -263.514 656.634 -259.106 650.032 -254.504C635.586 -244.435 621.764 -233.275 609.63 -220.384C588.762 -198.214 571.32 -169.551 560.841 -140.893C558.218 -133.717 555.594 -126.542 552.97 -119.366C545.262 -98.2837 539.695 -74.861 536.993 -52.5173C535.097 -36.8356 539.872 -21.4859 538.616 -5.83345C537.912 2.93957 535.122 11.7287 536.704 20.3825" stroke="#525252" stroke-width="7.93906" stroke-miterlimit="10" stroke-linecap="round"/>
<path d="M577.615 -1.23364C566.975 54.3018 615.844 109.565 666.979 120.759C733.031 135.22 798.357 70.046 810.044 8.70197C810.638 5.584 811.965 2.66801 813.281 -0.212261C819.751 -14.3768 829.938 -27.9736 834.113 -42.8592C838.826 -59.6615 852.233 -72.6159 857.684 -89.204C861.453 -100.673 863.897 -109.893 864.939 -122.421" stroke="#525252" stroke-width="7.93906" stroke-miterlimit="10" stroke-linecap="round"/>
<path d="M723.472 391.076C682.538 369.354 628.737 379.616 593.711 407.112" stroke="#525252" stroke-width="7.93906" stroke-miterlimit="10" stroke-linecap="round"/>
<path d="M817.317 724.163C847.301 696.029 862.433 653.271 859.071 613.933C854.027 567.754 840.577 526.706 817.039 485.658C800.226 458.292 778.369 439.479 758.194 413.824C753.15 408.693 748.106 405.272 742.666 400.469" stroke="#525252" stroke-width="7.93906" stroke-miterlimit="10" stroke-linecap="round"/>
<path d="M857.021 727.138C870.581 708.986 878.079 687.624 882.258 665.427C887.11 639.652 888.494 613.61 884.912 587.57C881.45 562.392 873.582 539.021 863.695 515.791C853.587 492.04 842.189 469.312 827.131 448.355C819.573 437.836 809.577 430.405 800.255 421.661C791.139 413.11 785.863 400.319 775.844 392.953" stroke="#525252" stroke-width="7.93906" stroke-miterlimit="10" stroke-linecap="round"/>
<path d="M761.036 437.361C730.919 389.793 658.047 384.332 613.529 412.266C556.024 448.35 553.238 541.387 586.551 593.884C588.245 596.552 589.272 599.591 590.282 602.596C595.253 617.374 597.155 634.36 604.273 648.042C612.307 663.486 611.448 682.276 618.803 698.085C623.888 709.016 628.4 717.39 636.173 727.164" stroke="#525252" stroke-width="7.93906" stroke-miterlimit="10" stroke-linecap="round"/>
<path d="M-84.625 -134.019C-80.7618 -82.1735 -77.3992 -27.4428 -45.455 15.3156C-38.7299 40.9706 -26.9609 63.205 -3.42309 80.3083C20.1148 97.4117 47.0152 105.963 73.9156 107.674C120.991 109.384 163.023 78.598 183.199 35.8396C184.88 32.419 186.561 27.288 188.242 23.8673C194.968 -0.0774176 203.374 -22.3118 200.011 -47.9668C193.286 -80.4631 189.924 -111.249 187.854 -144.591" stroke="#525252" stroke-width="7.93906" stroke-miterlimit="10" stroke-linecap="round"/>
<path d="M27.6941 -164.453C21.798 -142.036 18.4355 -119.801 23.4793 -95.8565C28.5232 -63.3601 31.8857 -29.1534 57.1048 -6.9191C65.5112 -0.0777586 78.9614 -3.49842 87.3678 -10.3397C99.1368 -20.6018 97.4555 -34.2844 94.0929 -47.9671C89.0491 -65.0705 85.6865 -82.1738 82.324 -99.2772C78.9614 -126.643 85.6865 -152.298 84.0053 -177.953C82.324 -196.766 70.5551 -213.87 53.7423 -224.132C45.3359 -229.263 35.2483 -230.973 26.8419 -230.973C8.34784 -230.973 -8.46492 -220.711 -20.2338 -205.318C-57.2219 -150.587 -42.0904 -85.5945 -25.2777 -27.4431C-11.8275 15.3153 18.4355 56.3633 65.5112 61.4943C89.0491 63.2047 112.587 56.3633 127.718 37.5496C149.575 10.1843 156.3 -24.0224 152.938 -58.2291C151.256 -75.3325 146.212 -90.7255 142.85 -107.829C141.169 -119.801 144.531 -130.063 141.169 -142.036C139.487 -143.746 137.806 -147.167 137.806 -148.877C131.081 -188.215 119.312 -229.263 87.5563 -252.777" stroke="#525252" stroke-width="7.93906" stroke-miterlimit="10" stroke-linecap="round"/>
<path d="M20.4062 -31.7576C28.5228 -6.91877 48.698 18.7362 77.2797 13.6052C99.1363 8.47424 114.268 -15.4704 110.905 -37.7048C100.818 -85.5942 99.1363 -131.773 99.1363 -179.663C99.1363 -184.794 97.4551 -188.214 96.0857 -193.685" stroke="#525252" stroke-width="7.93906" stroke-miterlimit="10" stroke-linecap="round"/>
<path d="M46.0193 39.3679C30.1997 34.1283 20.112 22.1559 10.0244 10.1836C-21.9199 -37.7058 -26.9637 -92.4365 -25.2824 -147.167C-23.6011 -174.533 -10.1509 -207.029 19.9448 -214.045" stroke="#525252" stroke-width="7.93906" stroke-miterlimit="10" stroke-linecap="round"/>
<path d="M113.628 -141.732C115.166 -129.112 114.489 -117.077 115.813 -104.532C117.293 -90.5147 120.339 -75.7401 120.339 -61.6538C121.393 -51.673 122.442 -41.6918 123.5 -31.7115C124.392 -23.3013 120.48 -15.5343 121.486 -7.22164C122.177 -1.51017 127.975 4.26481 126.036 10.1833C119.311 39.259 87.3665 46.1004 62.3452 43.8696" stroke="#525252" stroke-width="7.93906" stroke-miterlimit="10" stroke-linecap="round"/>
<path d="M-8.06934 -125.548C-7.09352 -93.3333 -3.98253 -58.5763 7.17492 -28.1443C16.2251 -3.4597 35.2868 28.8178 64.5743 29.5603C82.5572 30.0163 100.527 21.2377 111.355 6.61622" stroke="#525252" stroke-width="7.93906" stroke-miterlimit="10" stroke-linecap="round"/>
<path d="M164.116 37.2195C181.52 6.76385 188.245 -27.4428 181.52 -61.6495C178.157 -85.5942 173.114 -107.829 174.795 -131.773C174.795 -136.904 171.432 -142.035 171.432 -147.166C171.432 -174.532 173.113 -200.187 160.957 -225.798" stroke="#525252" stroke-width="7.93906" stroke-miterlimit="10" stroke-linecap="round"/>
<path d="M-29.0181 24.7449C-19.3191 53.6728 5.82515 73.8166 33.5813 83.434C60.8474 92.8817 92.756 93.6171 119.167 80.9334C133.524 74.0384 145.783 63.2763 155.402 50.4965" stroke="#525252" stroke-width="7.93906" stroke-miterlimit="10" stroke-linecap="round"/>
<path d="M168.422 -46.3283C170.117 5.45458 147.567 62.544 92.5322 73.1496C65.8944 78.2829 37.3973 72.3054 14.6895 57.3152C4.49556 50.5859 -9.01617 39.9579 -13.6299 28.1706C-16.0269 22.0462 -17.8425 17.7271 -22.8201 13.143C-27.2795 9.0362 -32.2635 5.64714 -35.988 0.776175C-55.856 -25.2081 -64.7422 -59.0127 -67.845 -91.2462C-70.8822 -122.797 -72.4281 -158.006 -61.6343 -188.203C-51.1786 -217.454 -30.0893 -246.461 -0.144117 -256.648C28.676 -266.453 65.2522 -258.624 86.1 -235.344C91.3785 -229.449 97.4639 -224.771 101.58 -217.776C105.316 -211.429 107.585 -204.366 109.476 -197.263C110.511 -193.375 111.844 -189.473 112.37 -185.478C112.954 -181.051 112.546 -176.514 113.558 -172.138C115.448 -163.962 121.203 -156.834 123.695 -148.691C128.991 -131.385 127.864 -111.688 130.447 -93.7631C131.772 -84.569 134.124 -75.5908 134.44 -66.3375C134.752 -57.2085 138.103 -48.3737 138.175 -39.0117C138.242 -30.4434 136.917 -21.869 134.072 -13.7952" stroke="#525252" stroke-width="7.93906" stroke-miterlimit="10" stroke-linecap="round"/>
<path d="M63.3628 121.016C23.4745 116.225 -20.2387 99.1216 -42.0953 61.4942C-57.2268 34.1289 -67.3144 8.47384 -80.7646 -18.8915C-85.8084 -27.4432 -87.4896 -37.7052 -88.9409 -47.9238" stroke="#525252" stroke-width="7.93906" stroke-miterlimit="10" stroke-linecap="round"/>
<path d="M163.333 -241.519C186.561 -224.131 179.836 -189.925 189.924 -165.98C194.967 -157.428 198.33 -148.877 201.693 -140.325C210.099 -106.118 213.461 -75.3323 215.143 -41.1256C218.505 -15.4706 215.143 10.1845 201.693 32.4188C200.011 34.1292 201.693 37.5498 200.011 39.2602C176.473 87.1496 132.76 128.198 77.8823 122.292" stroke="#525252" stroke-width="7.93906" stroke-miterlimit="10" stroke-linecap="round"/>
<path d="M872.134 52.8312C867.421 67.5512 858.644 81.4153 850.347 94.2753C839.309 111.385 828.576 128.065 823.097 148.107C816.597 171.881 818.296 198.8 822.805 222.833C824.82 233.574 827.759 243.095 828.109 254.403C828.391 263.497 826.914 272.384 826.784 281.265C826.55 297.27 830.767 315.014 832.978 330.932C835.582 349.683 838.272 370.087 846.645 386.977" stroke="#525252" stroke-width="7.93906" stroke-miterlimit="10" stroke-linecap="round"/>
<path d="M609.345 255.048C624.391 254.638 638.995 257.796 653.914 259.178C664.228 260.135 674.746 260.516 685.09 259.681C693.997 258.963 702.804 257.344 711.703 256.565C720.652 255.781 728.198 256.37 736.898 253.69" stroke="#525252" stroke-width="7.93906" stroke-miterlimit="10" stroke-linecap="round"/>
<path d="M797.976 226.506C796.685 216.132 797.657 203.396 792.672 193.924C790.839 190.441 785.982 184.985 781.388 187.209C775.237 190.185 780.663 200.969 781.971 205.499C782.286 206.589 782.604 207.728 782.399 208.844C781.853 211.815 778.234 212.827 775.282 213.165C758.531 215.09 741.674 215.49 724.869 215.103C720.546 215.003 715.34 215.392 713.273 219.255C706.376 232.141 727.046 229.373 732.823 229.22C746.779 228.852 760.866 226.22 774.736 229.055C778.796 229.885 785.773 231.492 786.427 236.527C786.826 239.598 784.83 242.815 781.933 243.769C780.366 244.285 778.676 244.185 777.032 244.081C769.355 243.591 761.678 243.101 754.001 242.611C730.601 241.118 709.257 245.515 686.122 246.6C671.27 247.297 657.372 244.482 642.795 243.397C629.713 242.424 618.639 240.306 605.659 243.295C596.008 245.517 593.082 255.649 600.69 263.353C604.953 267.668 611.011 269.53 616.881 270.859C639.425 275.965 662.697 275.449 685.542 273.044C706.602 270.826 727.644 268.439 748.7 266.189C762.928 264.668 790.754 266.94 799.811 252.058C803.069 246.705 798.733 232.58 797.976 226.506Z" stroke="#525252" stroke-width="7.93906" stroke-miterlimit="10" stroke-linecap="round"/>
<path d="M804.401 326.452C803.407 320.464 802.411 314.453 802.228 308.384C802.172 306.538 802.18 304.632 801.463 302.936C800.46 300.565 797.991 298.917 795.453 298.924C794.612 298.926 793.782 299.093 792.946 299.192C785.974 300.015 777.702 296.489 771.646 302.652C767.793 306.573 778.446 309.773 780.515 310.78C783.924 312.44 787.672 314.484 788.782 318.159C789.736 321.32 788.409 324.772 788.996 328.024C789.684 331.828 792.829 334.647 796.027 336.74C801.005 340 805.401 343.787 810.316 347.12C813.274 348.624 815.627 353.333 819.064 353.131C823.921 352.845 822.749 347.076 822.085 343.699C820.404 335.148 818.723 328.306 817.041 319.755C815.36 307.782 817.041 297.52 813.679 285.548C813.679 285.548 811.997 283.838 810.316 283.838C805.272 283.838 800.229 287.258 795.185 287.258C787.524 287.258 779.841 287.656 772.22 288.452C766.624 289.037 760.949 293.412 755.35 293.094C754.59 293.051 753.851 292.828 753.121 292.606C747.547 290.913 744.388 289.97 738.983 292.592C735.875 294.1 731.312 297.054 734.229 300.976C735.404 302.555 737.241 303.452 739.006 304.291C742.337 305.875 745.761 307.298 749.231 308.535C752.914 309.847 755.818 311.998 759.359 313.729C765.198 316.583 770.912 317.899 776.434 321.488" stroke="#525252" stroke-width="7.93906" stroke-miterlimit="10" stroke-linecap="round"/>
<path d="M742.751 203.217C750.025 203.241 757.295 201.222 763.548 197.442" stroke="#525252" stroke-width="7.93906" stroke-miterlimit="10" stroke-linecap="round"/>
<path d="M870.149 18.1339C867.559 15.0909 862.158 0.10278 857.917 13.7421C852.536 31.0494 843.413 48.3462 835.168 65.0334C808.602 118.802 755.29 164.64 694.622 170.276" stroke="#525252" stroke-width="7.93906" stroke-miterlimit="10" stroke-linecap="round"/>
<path d="M433.303 6.29914C440.435 11.8941 448.841 15.3148 455.566 18.7355C457.248 18.7355 462.291 22.1561 460.61 13.6045C455.566 -27.4436 465.654 -65.0709 470.698 -106.119C472.379 -112.96 470.698 -123.222 462.291 -119.802C403.447 -97.5673 337.877 -83.8846 277.351 -104.409C273.988 -106.119 268.945 -107.829 265.582 -109.54C245.407 -121.512 253.813 -145.457 250.451 -165.981C250.451 -172.822 243.725 -177.953 237.615 -181.89" stroke="#525252" stroke-width="7.93906" stroke-miterlimit="10" stroke-linecap="round"/>
<path d="M475.527 -23.5334C474.045 3.76219 475.841 31.2055 480.785 58.0738C471.678 57.9753 466.544 46.4213 460.533 40.7234C442.115 22.1568 416.896 17.0258 396.721 1.63277C395.04 -0.0775598 396.721 -3.49823 398.402 -5.20856C405.127 -10.3396 413.533 -5.20856 420.088 -1.56488" stroke="#525252" stroke-width="7.93906" stroke-miterlimit="10" stroke-linecap="round"/>
<path d="M628.354 372.818C603.515 381.327 581.659 393.3 564.846 415.534C563.165 418.955 559.802 424.086 556.44 427.506C532.902 468.554 526.176 518.154 539.499 561.971" stroke="#525252" stroke-width="7.93906" stroke-miterlimit="10" stroke-linecap="round"/>
<path d="M870.848 641.615C875.573 612.305 871.015 586.613 863.526 558.416C855.706 528.972 842.796 500.626 827.132 475.395C806.957 442.899 783.419 413.823 753.156 388.168C724.574 365.934 687.586 360.803 652.068 365.496" stroke="#525252" stroke-width="7.93906" stroke-miterlimit="10" stroke-linecap="round"/>
<path d="M822.129 535.687C815.873 513.17 802.902 493.736 790.162 474.568C783.919 465.174 777.181 458.96 766.738 455.276C758.19 452.26 751.93 445.639 745.835 439.144C720.66 412.318 681.19 402.526 646.221 413.079C626.733 418.96 609.526 431.239 597.523 447.937" stroke="#525252" stroke-width="7.93906" stroke-miterlimit="10" stroke-linecap="round"/>
<path d="M530.756 449.959C553.078 355.671 670.768 333.437 748.107 367.644C759.875 372.775 769.963 376.195 781.732 381.326C801.907 391.588 813.676 408.692 828.808 425.795C842.258 441.188 850.664 458.292 862.433 475.395C869.158 489.078 877.565 501.05 881.369 516.505" stroke="#525252" stroke-width="7.93906" stroke-miterlimit="10" stroke-linecap="round"/>
<path d="M844.398 427.585C837.478 416.164 828.913 405.879 819.845 396.176C815.702 391.744 812.048 386.285 807.649 382.27C798.806 374.197 789.321 367.472 781.708 358.116C772.904 347.296 757.623 343.609 745.624 337.645C726.934 328.355 709.221 330.221 689.496 327.809C679.362 326.568 669.108 326.263 658.935 327.203C645.311 328.461 631.879 328.9 618.331 330.776C612.066 331.644 609.723 334.544 604.701 337.555C600.765 339.914 596.951 340.433 592.724 341.87C582.63 345.3 572.486 349.332 563.705 355.558" stroke="#525252" stroke-width="7.93906" stroke-miterlimit="10" stroke-linecap="round"/>
<path d="M521.181 46.4005C537.794 114.574 595.1 170.678 662.703 184.954" stroke="#525252" stroke-width="7.93906" stroke-miterlimit="10" stroke-linecap="round"/>
<path d="M699.826 314.685C678.034 312.928 656.164 316.1 634.304 316.181C618.057 316.241 597.448 315.284 583.121 306.433C570.086 298.381 560.706 282.179 557.951 267.226C555.154 252.038 558.394 235.789 566.789 222.911C568.091 220.913 569.581 218.73 569.27 216.354C569.036 214.57 567.825 213.102 566.653 211.756C557.317 201.042 547.177 191.053 536.351 181.906" stroke="#525252" stroke-width="7.93906" stroke-miterlimit="10" stroke-linecap="round"/>
<path d="M566.214 252.936C564.846 268.445 571.572 282.128 583.341 290.679C586.703 292.39 588.384 294.1 591.747 295.81C628.735 312.914 669.086 297.521 707.755 300.941C711.117 300.941 714.48 302.652 717.843 304.362C722.886 309.493 729.611 314.624 736.337 318.045C761.556 326.596 783.412 338.569 805.269 355.672C808.631 359.093 811.994 364.224 815.357 367.645C833.851 384.748 852.345 400.141 860.751 424.086C862.432 432.637 859.07 441.189 862.432 449.741C882.608 482.237 897.739 514.733 909.508 550.65C914.552 564.333 916.233 579.726 917.018 593.792" stroke="#525252" stroke-width="7.93906" stroke-miterlimit="10" stroke-linecap="round"/>
<path d="M541.453 169.637C551.394 179.507 564.844 188.059 574.931 200.031C578.294 203.452 581.657 208.583 588.382 208.583C593.426 220.555 576.613 223.976 573.178 233.516" stroke="#525252" stroke-width="7.93906" stroke-miterlimit="10" stroke-linecap="round"/>
<path d="M537.785 372.698C544.672 364.223 542.991 353.961 553.079 347.119C563.166 340.278 574.935 336.857 585.023 333.437C588.386 331.726 593.429 328.306 591.748 324.885C586.704 316.333 573.254 314.623 563.166 311.202C559.804 309.492 556.441 304.361 554.76 300.94C542.991 259.892 527.86 218.844 525.086 175.782" stroke="#525252" stroke-width="7.93906" stroke-miterlimit="10" stroke-linecap="round"/>
<path d="M519.409 632.558C516.092 629.325 517.773 625.905 514.411 620.774C504.323 598.539 497.598 576.305 492.554 552.36C487.51 535.257 487.51 516.443 490.873 499.34C495.917 461.713 502.642 422.375 526.46 390.75" stroke="#525252" stroke-width="7.93906" stroke-miterlimit="10" stroke-linecap="round"/>
<path d="M626.01 288.447C669.086 290.678 712.799 283.837 756.512 278.706C768.281 278.706 778.369 278.706 790.138 276.996C798.544 275.285 805.269 271.865 810.313 265.023C818.719 253.051 817.038 239.368 813.675 225.686C808.632 206.872 800.225 189.769 805.269 169.245C805.269 165.824 806.95 160.693 803.588 158.983C800.225 157.272 796.863 158.983 795.181 160.693C768.281 188.058 732.974 196.61 697.667 201.741C674.13 203.451 652.273 201.741 630.416 193.189C625.373 189.769 618.647 189.769 613.604 186.348C596.791 176.086 581.659 167.534 566.528 153.852C559.803 147.01 554.759 141.879 548.034 135.038C531.221 116.224 517.771 95.7002 511.046 70.0452C499.277 20.4454 499.277 -30.8646 512.184 -81.0434" stroke="#525252" stroke-width="7.93906" stroke-miterlimit="10" stroke-linecap="round"/>
<path d="M655.789 214.081C669.088 215.424 685.901 206.873 694.307 220.555C697.67 227.397 687.582 232.528 682.538 232.528C655.638 229.107 630.419 222.266 603.518 225.686C598.474 227.397 593.431 232.528 588.387 235.948C578.299 246.21 579.98 263.314 590.068 273.576C596.793 278.707 600.156 283.838 608.624 285.359" stroke="#525252" stroke-width="7.93906" stroke-miterlimit="10" stroke-linecap="round"/>
<path d="M491.09 39.5972C494.691 72.2006 504.77 103.924 523.996 130.537C541.799 155.181 566.206 177.527 592.01 193.22C606.486 202.024 622.307 208.34 638.868 211.643" stroke="#525252" stroke-width="7.93906" stroke-miterlimit="10" stroke-linecap="round"/>
<path d="M589 -266.832C517.773 -189.925 484.148 -80.4638 489.608 23.6123" stroke="#525252" stroke-width="7.93906" stroke-miterlimit="10" stroke-linecap="round"/>
<path d="M593.299 134.327C576.619 121.356 564.85 104.252 551.4 85.4388C539.631 66.6251 536.269 46.1011 526.181 27.2874C522.819 20.4461 521.137 11.8944 521.137 5.05305C519.456 -27.4433 519.456 -59.9397 527.862 -92.436C534.588 -118.091 544.675 -140.325 556.444 -162.56C558.125 -165.98 558.125 -171.111 559.807 -174.532C576.619 -203.608 591.751 -229.263 616.97 -251.497C627.058 -258.338 633.783 -265.18 643.87 -270.311C652.277 -275.442 662.364 -275.442 669.487 -281.788" stroke="#525252" stroke-width="7.93906" stroke-miterlimit="10" stroke-linecap="round"/>
<path d="M812.533 123.326C801.907 141.88 783.413 153.853 766.6 164.115C754.831 172.666 741.381 176.087 729.612 181.218C701.03 193.19 675.811 174.377 650.592 164.115C645.548 162.404 640.504 162.404 635.461 160.694C627.054 157.273 616.966 152.142 609.05 146.638" stroke="#525252" stroke-width="7.93906" stroke-miterlimit="10" stroke-linecap="round"/>
<path d="M873.477 37.5689C870.838 35.8383 867.476 32.4176 864.113 39.2589C854.025 63.2036 842.256 87.1483 825.021 107.959" stroke="#525252" stroke-width="7.93906" stroke-miterlimit="10" stroke-linecap="round"/>
<path d="M504.198 528.595C504.159 477.542 517.396 424.717 550.253 385.068C566.166 365.867 590.92 355.039 614.184 347.837C638.175 340.411 663.517 337.516 688.531 339.329C716.626 341.366 744.332 349.401 768.926 363.443" stroke="#525252" stroke-width="7.93906" stroke-miterlimit="10" stroke-linecap="round"/>
<path d="M281.857 456.857C305.106 470.075 331.407 476.51 358.032 475.234C371.52 474.588 384.947 472.059 397.751 467.69C410.082 463.482 420.913 456.529 431.92 449.644C441.917 443.391 452.561 440.343 463.098 435.379C473.778 430.348 480.557 421.323 485.948 410.937C491.374 400.484 495.125 389.246 500.2 378.624C505.614 367.292 514.482 358.822 520.437 347.99C527.155 335.772 525.679 321.193 523.725 307.913C521.544 293.084 521.4 277.622 516.882 263.248" stroke="#525252" stroke-width="7.93906" stroke-miterlimit="10" stroke-linecap="round"/>
<path d="M432.873 37.4897C428.663 35.8384 425.3 32.4177 421.938 28.9971C371.5 -1.78898 314.336 3.34202 265.579 35.8384C262.217 39.2591 258.854 40.9694 253.81 44.3901C230.272 63.2038 213.46 85.4381 198.328 112.803C196.647 116.224 191.603 119.645 188.241 123.065C186.559 126.486 184.878 131.617 183.197 135.038C159.659 215.424 179.834 299.23 210.097 374.485C221.866 401.85 240.36 429.215 265.776 446.382" stroke="#525252" stroke-width="7.93906" stroke-miterlimit="10" stroke-linecap="round"/>
<path d="M168.524 280.056C179.836 328.307 188.242 374.486 216.824 418.954C220.186 422.375 221.868 425.796 225.23 430.927C240.362 451.451 260.537 463.423 282.393 475.396C295.844 482.237 310.975 487.368 326.107 489.078C379.907 494.209 430.346 477.106 475.74 442.899C480.784 439.478 487.509 434.347 492.553 427.506C499.278 418.954 504.322 410.403 507.684 400.141C509.366 389.879 514.41 383.037 521.135 374.486C544.673 341.989 542.991 300.941 529.541 265.024C514.41 222.266 514.41 177.797 504.322 133.329C500.959 121.356 497.597 111.094 490.872 100.832L485.828 95.7012C475.74 76.8875 460.609 63.2048 447.183 49.5427" stroke="#525252" stroke-width="7.93906" stroke-miterlimit="10" stroke-linecap="round"/>
<path d="M195.852 89.8008C176.473 117.936 163.023 150.432 159.66 184.639C157.979 212.004 157.979 239.369 165.55 264.291" stroke="#525252" stroke-width="7.93906" stroke-miterlimit="10" stroke-linecap="round"/>
<path d="M268.668 -21.0773C263.843 -13.0344 264.568 -3.65096 266.881 5.08942C267.966 9.19174 269.808 12.1151 267.492 16.0806C265.372 19.7082 261.21 21.5624 257.862 23.9073C243.913 33.675 231.09 45.0732 219.719 57.8381C213.475 64.8467 207.671 72.2566 202.312 79.9852" stroke="#525252" stroke-width="7.93906" stroke-miterlimit="10" stroke-linecap="round"/>
<path d="M219.428 22.0142C223.417 13.3829 225.249 4.59904 226.883 -4.76335C227.584 -8.77595 228.301 -12.8431 230.009 -16.5292C233.193 -23.3992 239.767 -27.3374 243.19 -33.9011C246.182 -39.6383 246.082 -45.836 244.639 -52.0387C243.139 -58.4841 236.763 -73.9421 242.214 -79.7446C248.796 -86.7505 270.178 -70.6713 279.457 -69.2681C289.639 -67.7288 299.942 -70.9299 309.951 -67.3132C311.284 -66.8318 312.661 -66.0958 313.245 -64.7857C314.474 -62.0327 311.513 -59.2815 308.817 -58.0064C297.221 -52.5209 283.781 -52.4627 272.32 -46.9139C266.071 -43.8883 263.444 -37.6355 260.882 -31.5328C256.343 -20.723 254.431 -14.4683 255.366 -2.55447C255.769 2.5785 255.246 8.343 251.523 11.8323" stroke="#525252" stroke-width="7.93906" stroke-miterlimit="10" stroke-linecap="round"/>
<path d="M243.123 -14.3535C237.973 -4.0887 239.186 6.49709 236.236 17.1013C233.998 25.147 226.936 32.2127 220.478 36.9045C213.514 41.9634 210.518 49.0746 205.669 55.845C194.237 71.8058 183.988 89.7918 169.124 102.487C138.148 128.946 104.625 138.607 64.5582 134.102C44.7422 131.873 25.2698 126.481 7.07772 118.182C-8.71585 110.978 -21.11 103.969 -33.8884 92.1911C-45.5682 81.4258 -51.3788 97.5561 -62.7515 98.984" stroke="#525252" stroke-width="7.93906" stroke-miterlimit="10" stroke-linecap="round"/>
<path d="M549.005 331.07C549.021 331.956 549.209 333.051 550.041 333.314C550.593 333.488 551.17 333.192 551.674 332.905C553.997 331.582 556.32 330.259 558.643 328.936C559.639 328.369 560.653 327.795 561.766 327.538C562.341 327.406 562.966 327.347 563.426 326.971C564.119 326.407 564.161 325.293 563.743 324.496C563.326 323.699 562.563 323.156 561.804 322.688C560.056 321.61 558.153 320.746 556.639 319.349C555.145 317.97 549.911 312.47 549.196 317.453C548.893 319.562 549.256 321.987 549.176 324.137C549.089 326.447 548.964 328.757 549.005 331.07Z" stroke="#525252" stroke-width="7.93906" stroke-miterlimit="10" stroke-linecap="round"/>
<path d="M513.685 136.488C516.442 139.692 518.499 143.517 519.664 147.607" stroke="#525252" stroke-width="7.93906" stroke-miterlimit="10" stroke-linecap="round"/>
<path d="M750.148 255.656C755.139 255.293 760.13 254.931 765.12 254.569C766.603 254.461 768.129 254.358 769.545 254.819" stroke="#525252" stroke-width="7.93906" stroke-miterlimit="10" stroke-linecap="round"/>
<path d="M602.052 214.989C603.618 213.801 606.044 214.003 607.4 215.434" stroke="#525252" stroke-width="7.93906" stroke-miterlimit="10" stroke-linecap="round"/>
<path d="M541.602 203.991C543.388 205.929 544.188 207.784 545.294 210.106C546.619 212.892 549.17 215.703 549.653 218.805C549.766 219.532 549.69 220.274 549.614 221.006C549.172 225.239 548.643 229.447 548.18 233.673" stroke="#525252" stroke-width="7.93906" stroke-miterlimit="10" stroke-linecap="round"/>
<path d="M157.972 127.765C146.97 139.195 130.235 142.916 115.277 145.31C68.405 152.813 27.4144 145.432 -14.7594 122.505C-24.6479 117.13 -40.431 100.685 -52.028 111.235C-53.0532 112.168 -53.9697 113.273 -54.4389 114.588C-55.3623 117.176 -54.4219 120.019 -53.5949 122.641C-50.3734 132.85 -48.3364 143.425 -46.9347 154.041C-45.5676 164.395 -49.0647 173.74 -46.6495 183.921C-45.2266 189.919 -43.0207 195.799 -42.7533 201.963" stroke="#525252" stroke-width="7.93906" stroke-miterlimit="10" stroke-linecap="round"/>
<path d="M116.774 298.042C119.207 299.38 117.473 303.105 117.603 305.915C117.682 307.611 118.57 309.142 119.395 310.619C121.865 315.035 123.987 319.653 125.734 324.413C130.927 338.558 129.224 359.59 110.127 359.844C94.2471 360.054 92.4146 338.361 85.0058 328.301C79.968 321.46 73.1701 315.414 66.8791 309.747C56.2366 300.161 45.0276 290.959 36.695 279.243C28.3625 267.528 23.1248 252.629 26.2627 238.525" stroke="#525252" stroke-width="7.93906" stroke-miterlimit="10" stroke-linecap="round"/>
<path d="M83.4404 226.716C80.0241 216.755 77.3722 206.329 70.469 198.142C63.8154 190.251 54.6022 184.72 44.859 181.78C28.0239 176.701 8.89502 179.622 -4.95768 190.896C-12.5868 197.105 -18.1391 205.646 -20.7012 215.243" stroke="#525252" stroke-width="7.93906" stroke-miterlimit="10" stroke-linecap="round"/>
<path d="M27.957 207.444C36.9263 206.873 45.3325 212.004 48.6952 218.845C55.3958 232.477 58.2729 247.753 65.3676 261.222C70.921 271.766 91.9274 286.941 103.197 274.931C112.136 265.405 97.8218 247.034 90.637 240.801" stroke="#525252" stroke-width="7.93906" stroke-miterlimit="10" stroke-linecap="round"/>
<path d="M149.052 367.866C137.935 384.39 117.044 388.695 99.0143 382.815C89.9996 379.875 80.0495 374.875 72.8834 368.498C65.8773 362.263 63.9282 351.932 58.64 344.374C48.0154 329.19 31.1107 320.261 19.9553 305.566C10.5358 293.157 3.597 276.744 0.398876 261.463C-3.34465 243.577 -0.192342 225.157 14.4549 213.265" stroke="#525252" stroke-width="7.93906" stroke-miterlimit="10" stroke-linecap="round"/>
<path d="M142.939 283.175C147.892 306.072 154.617 328.307 154.7 352.145" stroke="#525252" stroke-width="7.93906" stroke-miterlimit="10" stroke-linecap="round"/>
<path d="M-18.03 186.865C-18.9253 178.764 -21.0333 157.619 -8.71473 156.918C-7.07868 156.825 -5.49712 157.459 -3.97742 158.083C4.35162 161.5 14.8225 165.981 23.8023 166.804" stroke="#525252" stroke-width="7.93906" stroke-miterlimit="10" stroke-linecap="round"/>
<path d="M189.352 788.551C208.418 757.6 211.78 721.683 215.143 685.766C218.505 656.69 231.956 627.614 233.637 598.539C233.637 583.146 236.999 567.753 235.318 552.36C233.637 526.705 215.143 509.601 205.055 489.077C193.286 465.133 179.836 441.188 154.617 430.926C149.573 429.216 146.21 429.216 141.167 427.505C114.266 412.112 85.6845 401.85 55.4215 398.43C18.4334 396.719 -18.5546 406.981 -48.8176 430.926C-90.8495 463.422 -112.706 511.312 -128.145 559.726" stroke="#525252" stroke-width="7.93906" stroke-miterlimit="10" stroke-linecap="round"/>
<path d="M0.706802 322.823C16.7532 338.569 35.2472 352.252 45.3349 374.486C45.3349 377.907 47.0162 383.038 43.6536 383.038C18.4345 386.459 -5.10337 393.3 -28.6412 401.852C-58.9042 413.824 -82.4421 436.058 -102.617 463.424C-121.111 492.499 -136.243 521.575 -141.287 555.782C-136.243 589.988 -144.649 625.905 -141.287 660.112C-139.605 696.029 -137.924 731.946 -124.474 766.153C-117.749 779.835 -107.661 791.808 -99.2548 805.49C-75.717 839.697 -45.454 865.352 -8.46592 879.035C-0.059541 880.745 6.66556 875.614 15.0719 875.614C35.2472 873.904 53.7413 880.745 73.9166 877.325C117.63 868.773 152.937 839.697 178.517 805.007" stroke="#525252" stroke-width="7.93906" stroke-miterlimit="10" stroke-linecap="round"/>
<path d="M124.329 242.895C123.8 238.247 119.311 235.373 115.912 232.22C108.433 225.281 105.205 214.914 102.337 205.039C100.429 198.466 98.4337 191.671 94.0683 186.45C92.539 184.621 90.7547 183.033 88.9776 181.453C87.1182 179.8 85.2587 178.146 83.3994 176.493" stroke="#525252" stroke-width="7.93906" stroke-miterlimit="10" stroke-linecap="round"/>
<path d="M56.4297 278.86C71.2875 292.857 90.1886 305.771 100.14 324.183C102.808 329.12 103.046 348.939 112.559 344.926C123.348 340.376 114.698 323.033 110.213 317.299C103.909 309.239 95 301.499 104.135 291.728C111.021 284.361 117.458 279.625 119.041 268.837C120.44 259.304 117.445 250.366 111.12 243.308C104.002 235.365 96.652 230.132 93.8157 219.237C92.3671 213.672 91.5206 208.002 88.6525 202.943C85.7009 197.737 81.4103 193.158 77.2992 188.88C69.392 180.654 59.7433 173.13 48.1553 171.813" stroke="#525252" stroke-width="7.93906" stroke-miterlimit="10" stroke-linecap="round"/>
<path d="M11.5519 253.595C10.5142 244.051 18.6694 212.536 32.4517 226.281C37.3116 231.128 39.9572 238.286 41.1475 244.959C42.4623 252.329 41.1292 259.952 46.0241 266.241" stroke="#525252" stroke-width="7.93906" stroke-miterlimit="10" stroke-linecap="round"/>
<path d="M98.6374 369.29C92.4096 365.934 87.3657 362.514 82.3219 355.672C77.2781 347.121 73.9155 338.569 68.8717 331.728C48.6964 311.204 26.8399 294.1 15.2451 267.374" stroke="#525252" stroke-width="7.93906" stroke-miterlimit="10" stroke-linecap="round"/>
<path d="M122.489 220.444C112.587 208.583 105.862 193.189 109.224 177.796C109.224 170.955 119.312 172.665 126.037 170.955C131.081 169.245 136.125 174.376 136.125 179.507C132.762 208.583 137.806 235.948 137.806 263.313C136.125 275.286 129.4 287.258 131.081 299.23C132.762 316.334 144.531 331.727 142.85 348.83C141.169 362.513 126.037 371.064 111.861 371.253" stroke="#525252" stroke-width="7.93906" stroke-miterlimit="10" stroke-linecap="round"/>
<path d="M123.411 189.518C123.727 187.792 123.538 185.974 122.874 184.354" stroke="#525252" stroke-width="7.93906" stroke-miterlimit="10" stroke-linecap="round"/>
<path d="M-6.70508 177.796C-5.66252 175.175 -2.82519 173.418 -0.0571422 173.679" stroke="#525252" stroke-width="7.93906" stroke-miterlimit="10" stroke-linecap="round"/>
<path d="M-55.6631 404.913C-30.3221 386.26 -1.49 378.753 28.5418 372.219C28.2953 372.147 27.8786 372.029 27.5593 371.968C26.8443 371.065 26.8443 369.355 26.8443 367.644C11.7128 353.962 -0.0560484 340.279 -11.867 325.341" stroke="#525252" stroke-width="7.93906" stroke-miterlimit="10" stroke-linecap="round"/>
<path d="M5.64572 364.237C-3.9547 368.015 -14.7386 368.412 -23.8556 373.274C-27.7012 375.325 -31.115 378.105 -34.5503 380.806C-35.7659 381.761 -37.053 382.739 -38.5678 383C-40.0825 383.26 -41.8774 382.543 -42.3196 381.046C-43.7374 376.247 -40.374 368.42 -39.4435 363.751C-38.208 357.551 -37.1132 351.321 -36.1604 345.07C-34.195 332.176 -33.3251 326.539 -32.5761 313.513" stroke="#525252" stroke-width="7.93906" stroke-miterlimit="10" stroke-linecap="round"/>
<path d="M178.325 401.321C176.919 399.884 175.059 399.269 172.968 400.37C169.431 402.233 160.861 408.146 168.186 410.724C170.908 411.682 177.949 415.42 180.222 411.834C181.924 409.152 180.858 403.906 178.325 401.321Z" stroke="#525252" stroke-width="7.93906" stroke-miterlimit="10" stroke-linecap="round"/>
<path d="M322.923 506.898C307.613 509.602 292.481 513.023 279.031 504.471C275.669 501.051 273.987 495.92 270.625 492.499C252.131 471.975 231.955 456.582 213.461 436.058C198.33 417.244 189.923 396.72 181.517 374.486C173.111 377.907 171.429 386.458 164.704 391.589C157.979 396.72 149.573 401.851 141.166 405.272C139.485 406.982 134.441 410.403 136.123 413.824C144.529 422.375 159.661 415.534 169.748 420.665C173.111 424.086 178.155 425.796 181.517 429.217C205.055 453.161 215.143 482.237 233.637 511.313C236.999 514.733 240.362 518.154 242.043 521.575C242.043 523.285 243.724 526.706 244.129 528.571" stroke="#525252" stroke-width="7.93906" stroke-miterlimit="10" stroke-linecap="round"/>
</g>
</svg>
