<svg width="16" height="18" viewBox="0 0 16 18" fill="none" xmlns="http://www.w3.org/2000/svg">
<path d="M5.5004 8.16667V4C5.5004 3.33696 5.7638 2.70107 6.23264 2.23223C6.70148 1.76339 7.33736 1.5 8.0004 1.5C8.66345 1.5 9.29933 1.76339 9.76817 2.23223C10.237 2.70107 10.5004 3.33696 10.5004 4V8.16667M3.27624 5.66667H12.7254C12.9657 5.66664 13.2032 5.71857 13.4215 5.81892C13.6399 5.91926 13.834 6.06563 13.9905 6.248C14.1469 6.43037 14.2621 6.64443 14.3282 6.87549C14.3942 7.10655 14.4094 7.34915 14.3729 7.58667L13.3271 14.38C13.2363 14.9704 12.9371 15.5087 12.4837 15.8976C12.0304 16.2865 11.4527 16.5002 10.8554 16.5H5.14541C4.54824 16.5 3.97081 16.2862 3.5176 15.8973C3.06439 15.5085 2.76534 14.9702 2.67457 14.38L1.62874 7.58667C1.59221 7.34915 1.60748 7.10655 1.6735 6.87549C1.73951 6.64443 1.85471 6.43037 2.0112 6.248C2.16768 6.06563 2.36176 5.91926 2.58011 5.81892C2.79846 5.71857 3.03593 5.66664 3.27624 5.66667Z" stroke="black" stroke-width="1.5" stroke-linecap="round" stroke-linejoin="round"/>
</svg>
