<svg width="16" height="18" viewBox="0 0 16 18" fill="none" xmlns="http://www.w3.org/2000/svg">
<path d="M5.49967 8.16667C5.49967 8.82971 5.76307 9.4656 6.23191 9.93444C6.70075 10.4033 7.33663 10.6667 7.99967 10.6667C8.66272 10.6667 9.2986 10.4033 9.76744 9.93444C10.2363 9.4656 10.4997 8.82971 10.4997 8.16667C10.4997 7.50363 10.2363 6.86774 9.76744 6.3989C9.2986 5.93006 8.66272 5.66667 7.99967 5.66667C7.33663 5.66667 6.70075 5.93006 6.23191 6.3989C5.76307 6.86774 5.49967 7.50363 5.49967 8.16667Z" stroke="black" stroke-width="1.5" stroke-linecap="round" stroke-linejoin="round"/>
<path d="M12.7138 12.8808L9.17801 16.4167C8.8655 16.7289 8.44183 16.9042 8.00009 16.9042C7.55836 16.9042 7.13469 16.7289 6.82218 16.4167L3.28551 12.8808C2.3532 11.9485 1.71829 10.7606 1.46108 9.46739C1.20388 8.17419 1.33592 6.83376 1.84051 5.61561C2.34511 4.39745 3.19959 3.35628 4.29591 2.62376C5.39223 1.89123 6.68115 1.50024 7.99968 1.50024C9.3182 1.50024 10.6071 1.89123 11.7034 2.62376C12.7998 3.35628 13.6542 4.39745 14.1588 5.61561C14.6634 6.83376 14.7955 8.17419 14.5383 9.46739C14.2811 10.7606 13.6462 11.9485 12.7138 12.8808Z" stroke="black" stroke-width="1.5" stroke-linecap="round" stroke-linejoin="round"/>
</svg>
