<svg width="21" height="19" viewBox="0 0 21 19" fill="none" xmlns="http://www.w3.org/2000/svg">
<path d="M18.5001 10.5719L11.0001 17.9999L3.50006 10.5719C3.00536 10.0905 2.6157 9.51195 2.3556 8.87257C2.09551 8.23319 1.97062 7.54688 1.98879 6.85687C2.00697 6.16685 2.16782 5.48807 2.46121 4.86327C2.75461 4.23847 3.17419 3.68119 3.69354 3.22651C4.21289 2.77184 4.82076 2.42962 5.47887 2.22141C6.13697 2.01321 6.83106 1.94352 7.51743 2.01673C8.20379 2.08995 8.86756 2.30449 9.46693 2.64684C10.0663 2.98919 10.5883 3.45193 11.0001 4.00593C11.4136 3.45595 11.9362 2.99725 12.5352 2.65854C13.1341 2.31982 13.7966 2.10838 14.481 2.03745C15.1654 1.96652 15.8571 2.03763 16.5128 2.24632C17.1685 2.45502 17.7741 2.79681 18.2916 3.2503C18.8091 3.70379 19.2275 4.25922 19.5205 4.88182C19.8135 5.50443 19.9748 6.18082 19.9944 6.86864C20.0139 7.55647 19.8913 8.24093 19.6342 8.87918C19.3771 9.51744 18.991 10.0958 18.5001 10.5779" fill="white"/>
<path d="M18.5001 10.5719L11.0001 17.9999L3.50006 10.5719C3.00536 10.0905 2.6157 9.51195 2.3556 8.87257C2.09551 8.23319 1.97062 7.54688 1.98879 6.85687C2.00697 6.16685 2.16782 5.48807 2.46121 4.86327C2.75461 4.23847 3.17419 3.68119 3.69354 3.22651C4.21289 2.77184 4.82076 2.42962 5.47887 2.22141C6.13697 2.01321 6.83106 1.94352 7.51743 2.01673C8.20379 2.08995 8.86756 2.30449 9.46693 2.64684C10.0663 2.98919 10.5883 3.45193 11.0001 4.00593C11.4136 3.45595 11.9362 2.99725 12.5352 2.65854C13.1341 2.31982 13.7966 2.10838 14.481 2.03745C15.1654 1.96652 15.8571 2.03763 16.5128 2.24632C17.1685 2.45502 17.7741 2.79681 18.2916 3.2503C18.8091 3.70379 19.2275 4.25922 19.5205 4.88182C19.8135 5.50443 19.9748 6.18082 19.9944 6.86864C20.0139 7.55647 19.8913 8.24093 19.6342 8.87918C19.3771 9.51744 18.991 10.0958 18.5001 10.5779" stroke="black" stroke-width="2" stroke-linecap="round" stroke-linejoin="round"/>
</svg>
