<svg width="21" height="19" viewBox="0 0 21 19" fill="none" xmlns="http://www.w3.org/2000/svg">
<path d="M5.97913 1.07352C6.86419 0.922722 7.77181 0.972468 8.63509 1.21909C9.49837 1.46572 10.2953 1.90294 10.9671 2.49852L11.0041 2.53152L11.0381 2.50152C11.6793 1.93882 12.4331 1.51932 13.2493 1.27101C14.0655 1.02269 14.9252 0.951278 15.7711 1.06152L16.0171 1.09752C17.0834 1.28163 18.0801 1.75068 18.9016 2.45499C19.7231 3.15931 20.3388 4.07267 20.6836 5.09836C21.0283 6.12405 21.0893 7.22388 20.86 8.28139C20.6307 9.3389 20.1197 10.3147 19.3811 11.1055L19.2011 11.2905L19.1531 11.3315L11.7031 18.7105C11.5312 18.8807 11.3034 18.9828 11.062 18.9978C10.8206 19.0129 10.5819 18.94 10.3901 18.7925L10.2961 18.7105L2.80313 11.2885C2.00935 10.5162 1.44483 9.5392 1.17209 8.46579C0.899345 7.39238 0.929028 6.26442 1.25785 5.20684C1.58666 4.14926 2.20179 3.20332 3.03509 2.4738C3.86839 1.74427 4.88735 1.25962 5.97913 1.07352Z" fill="black"/>
</svg>
