<svg width="21" height="19" viewBox="0 0 21 19" fill="none" xmlns="http://www.w3.org/2000/svg">
<path d="M18.4998 9.89359L10.9998 17.3216L3.49981 9.89359C3.00512 9.4122 2.61546 8.8336 2.35536 8.19422C2.09527 7.55484 1.97037 6.86854 1.98855 6.17852C2.00673 5.4885 2.16758 4.80972 2.46097 4.18492C2.75436 3.56013 3.17395 3.00284 3.6933 2.54817C4.21265 2.09349 4.82052 1.75128 5.47862 1.54307C6.13673 1.33486 6.83082 1.26517 7.51718 1.33839C8.20354 1.41161 8.86731 1.62614 9.46669 1.96849C10.0661 2.31084 10.5881 2.77359 10.9998 3.32759C11.4133 2.77761 11.9359 2.31891 12.5349 1.98019C13.1339 1.64148 13.7963 1.43004 14.4807 1.35911C15.1652 1.28818 15.8569 1.35929 16.5126 1.56798C17.1683 1.77667 17.7738 2.11846 18.2914 2.57195C18.8089 3.02544 19.2272 3.58087 19.5202 4.20348C19.8132 4.82609 19.9746 5.50247 19.9941 6.1903C20.0137 6.87812 19.8911 7.56258 19.6339 8.20084C19.3768 8.8391 18.9907 9.41741 18.4998 9.89959" fill="white"/>
<path d="M18.4998 9.89359L10.9998 17.3216L3.49981 9.89359C3.00512 9.4122 2.61546 8.8336 2.35536 8.19422C2.09527 7.55484 1.97037 6.86854 1.98855 6.17852C2.00673 5.4885 2.16758 4.80972 2.46097 4.18492C2.75436 3.56013 3.17395 3.00284 3.6933 2.54817C4.21265 2.09349 4.82052 1.75128 5.47862 1.54307C6.13673 1.33486 6.83082 1.26517 7.51718 1.33839C8.20354 1.41161 8.86731 1.62614 9.46669 1.96849C10.0661 2.31084 10.5881 2.77359 10.9998 3.32759C11.4133 2.77761 11.9359 2.31891 12.5349 1.98019C13.1339 1.64148 13.7963 1.43004 14.4807 1.35911C15.1652 1.28818 15.8569 1.35929 16.5126 1.56798C17.1683 1.77667 17.7738 2.11846 18.2914 2.57195C18.8089 3.02544 19.2272 3.58087 19.5202 4.20348C19.8132 4.82609 19.9746 5.50247 19.9941 6.1903C20.0137 6.87812 19.8911 7.56258 19.6339 8.20084C19.3768 8.8391 18.9907 9.41741 18.4998 9.89959" stroke="black" stroke-width="2" stroke-linecap="round" stroke-linejoin="round"/>
</svg>
