<svg width="21" height="19" viewBox="0 0 21 19" fill="none" xmlns="http://www.w3.org/2000/svg">
<path d="M18.4993 10.5721L10.9993 18.0001L3.49932 10.5721C3.00463 10.0907 2.61497 9.51207 2.35487 8.87269C2.09478 8.23331 1.96989 7.54701 1.98806 6.85699C2.00624 6.16697 2.16709 5.48819 2.46048 4.86339C2.75388 4.23859 3.17346 3.68131 3.69281 3.22663C4.21216 2.77196 4.82003 2.42974 5.47814 2.22154C6.13624 2.01333 6.83033 1.94364 7.51669 2.01686C8.20306 2.09007 8.86682 2.30461 9.4662 2.64696C10.0656 2.98931 10.5876 3.45205 10.9993 4.00605C11.4129 3.45608 11.9355 2.99738 12.5344 2.65866C13.1334 2.31994 13.7958 2.1085 14.4803 2.03757C15.1647 1.96665 15.8564 2.03775 16.5121 2.24645C17.1678 2.45514 17.7734 2.79693 18.2909 3.25042C18.8084 3.70391 19.2268 4.25934 19.5197 4.88195C19.8127 5.50456 19.9741 6.18094 19.9936 6.86876C20.0132 7.55659 19.8906 8.24105 19.6335 8.8793C19.3763 9.51756 18.9902 10.0959 18.4993 10.5781" fill="white"/>
<path d="M18.4993 10.5721L10.9993 18.0001L3.49932 10.5721C3.00463 10.0907 2.61497 9.51207 2.35487 8.87269C2.09478 8.23331 1.96989 7.54701 1.98806 6.85699C2.00624 6.16697 2.16709 5.48819 2.46048 4.86339C2.75388 4.23859 3.17346 3.68131 3.69281 3.22663C4.21216 2.77196 4.82003 2.42974 5.47814 2.22154C6.13624 2.01333 6.83033 1.94364 7.51669 2.01686C8.20306 2.09007 8.86682 2.30461 9.4662 2.64696C10.0656 2.98931 10.5876 3.45205 10.9993 4.00605C11.4129 3.45608 11.9355 2.99738 12.5344 2.65866C13.1334 2.31994 13.7958 2.1085 14.4803 2.03757C15.1647 1.96665 15.8564 2.03775 16.5121 2.24645C17.1678 2.45514 17.7734 2.79693 18.2909 3.25042C18.8084 3.70391 19.2268 4.25934 19.5197 4.88195C19.8127 5.50456 19.9741 6.18094 19.9936 6.86876C20.0132 7.55659 19.8906 8.24105 19.6335 8.8793C19.3763 9.51756 18.9902 10.0959 18.4993 10.5781" stroke="black" stroke-width="2" stroke-linecap="round" stroke-linejoin="round"/>
</svg>
